<svg width="38" height="9" viewBox="0 0 38 9" fill="none" xmlns="http://www.w3.org/2000/svg">
<path d="M14.2139 7.74446C16.2485 7.74446 17.8978 6.09513 17.8978 4.06058C17.8978 2.02604 16.2485 0.376709 14.2139 0.376709C12.1794 0.376709 10.53 2.02604 10.53 4.06058C10.53 6.09513 12.1794 7.74446 14.2139 7.74446Z" fill="#1F1F1F"/>
<path d="M14.2105 0.0310059C15.3343 0.0310059 16.2819 0.416631 17.0534 1.18801C17.8294 1.95951 18.2178 2.90713 18.2178 4.03101C18.2178 5.15501 17.8368 6.09051 17.0746 6.83826C16.2653 7.63351 15.3104 8.03101 14.2105 8.03101C13.1248 8.03101 12.1868 7.63576 11.3964 6.84538C10.6108 6.05951 10.2178 5.12163 10.2178 4.03101C10.2178 2.93576 10.6108 1.98813 11.3964 1.18813C12.1678 0.416756 13.1058 0.0310059 14.2105 0.0310059ZM11.1178 2.95251C10.9988 3.28101 10.9391 3.64063 10.9391 4.03113C10.9391 4.91688 11.2629 5.68363 11.9104 6.33113C12.5628 6.97413 13.3343 7.29551 14.2246 7.29551C15.1248 7.29551 15.9008 6.96951 16.5534 6.31688C16.7868 6.09313 16.9699 5.85976 17.1031 5.61663L15.5961 4.94526C15.5435 5.19776 15.4163 5.40363 15.214 5.56301C15.0113 5.72251 14.7721 5.81438 14.496 5.83801V6.45238H14.0318V5.83801C13.5889 5.83351 13.184 5.67401 12.8175 5.35963L13.3675 4.80251C13.6293 5.04526 13.927 5.16663 14.2604 5.16663C14.3984 5.16663 14.5164 5.13588 14.6141 5.07376C14.7116 5.01201 14.7606 4.90976 14.7606 4.76663C14.7606 4.66651 14.7248 4.58563 14.6534 4.52376L14.2678 4.35938L13.7964 4.14501L13.1606 3.86638L11.1178 2.95251ZM14.2249 0.745256C13.3154 0.745256 12.5464 1.06663 11.9178 1.70951C11.7605 1.86676 11.6129 2.04526 11.4749 2.24538L13.0035 2.93101C13.0701 2.72151 13.1963 2.55363 13.3821 2.42751C13.5676 2.30138 13.7844 2.23113 14.0321 2.21676V1.60238H14.4965V2.21676C14.8633 2.23588 15.1965 2.35963 15.4965 2.58813L14.975 3.12388C14.7509 2.96676 14.5226 2.88826 14.2893 2.88826C14.1654 2.88826 14.0548 2.91213 13.9573 2.95963C13.8596 3.00726 13.8108 3.08826 13.8108 3.20251C13.8108 3.23588 13.8226 3.26913 13.8464 3.30251L14.3535 3.53126L14.7035 3.68838L15.3465 3.97401L17.3961 4.88826C17.463 4.60726 17.4963 4.32163 17.4963 4.03113C17.4963 3.11201 17.1773 2.33826 16.5393 1.70951C15.9059 1.06663 15.1341 0.745256 14.2249 0.745256Z" fill="white"/>
<path d="M33.9306 7.68543C35.9399 7.68543 37.5687 6.05659 37.5687 4.04731C37.5687 2.03802 35.9399 0.40918 33.9306 0.40918C31.9213 0.40918 30.2925 2.03802 30.2925 4.04731C30.2925 6.05659 31.9213 7.68543 33.9306 7.68543Z" fill="#1F1F1F"/>
<path d="M33.9929 0.0310059C35.1118 0.0310059 36.0593 0.419131 36.8356 1.19538C37.6116 1.96688 38 2.91201 38 4.03101C38 5.15026 37.6189 6.08813 36.8569 6.84526C36.0522 7.63576 35.0974 8.03101 33.9929 8.03101C32.9118 8.03101 31.9737 7.63813 31.1786 6.85238C30.393 6.06676 30 5.12651 30 4.03113C30 2.94076 30.393 1.99551 31.1786 1.19551C31.9548 0.419131 32.8929 0.0310059 33.9929 0.0310059ZM34.0071 0.752506C33.0976 0.752506 32.3286 1.07401 31.7 1.71688C31.0475 2.37888 30.7214 3.15026 30.7214 4.03101C30.7214 4.92163 31.0451 5.68813 31.6926 6.33101C32.3403 6.97876 33.1116 7.30238 34.0069 7.30238C34.8973 7.30238 35.6736 6.97626 36.3355 6.32388C36.9641 5.71438 37.2784 4.95013 37.2784 4.03101C37.2784 3.11688 36.9592 2.34538 36.3214 1.71688C35.688 1.07376 34.9165 0.752506 34.0071 0.752506ZM32.2214 3.46663C32.2975 2.97613 32.495 2.59638 32.8141 2.32738C33.1331 2.05838 33.5211 1.92388 33.9784 1.92388C34.6067 1.92388 35.107 2.12638 35.4784 2.53088C35.8497 2.93563 36.0355 3.45476 36.0355 4.08801C36.0355 4.70238 35.8426 5.21301 35.4571 5.62001C35.0711 6.02701 34.5714 6.23076 33.9569 6.23076C33.5045 6.23076 33.114 6.09513 32.7855 5.82363C32.4569 5.55213 32.2594 5.16651 32.1926 4.66651H33.2C33.2238 5.15226 33.5166 5.39513 34.0786 5.39513C34.3594 5.39513 34.5857 5.27363 34.7571 5.03088C34.9287 4.78813 35.0145 4.46413 35.0145 4.05951C35.0145 3.63563 34.9359 3.31313 34.7789 3.09163C34.6216 2.87026 34.3956 2.75951 34.1001 2.75951C33.5666 2.75951 33.2667 2.99513 33.2001 3.46651H33.493L32.7002 4.25938L31.9074 3.46651L32.2214 3.46663Z" fill="white"/>
<path d="M24.0172 7.63297C25.9692 7.63297 27.5517 6.05052 27.5517 4.09846C27.5517 2.14641 25.9692 0.563965 24.0172 0.563965C22.0651 0.563965 20.4827 2.14641 20.4827 4.09846C20.4827 6.05052 22.0651 7.63297 24.0172 7.63297Z" fill="#1F1F1F"/>
<path d="M23.9929 0.0603027C25.1164 0.0603027 26.0641 0.445928 26.8356 1.21743C27.6116 1.99368 28 2.9413 28 4.0603C28 5.18418 27.6189 6.1198 26.8569 6.8673C26.0474 7.66268 25.0928 8.0603 23.9929 8.0603C22.9118 8.0603 21.9737 7.6673 21.1786 6.88155C20.393 6.0958 20 5.15555 20 4.0603C20 2.96518 20.393 2.01755 21.1786 1.21755C21.9501 0.445928 22.888 0.0603027 23.9929 0.0603027ZM24.0071 0.781803C23.0976 0.781803 22.3286 1.10093 21.7 1.73893C21.0475 2.40568 20.7214 3.17955 20.7214 4.06043C20.7214 4.94618 21.0451 5.71293 21.6926 6.36018C22.3403 7.00793 23.1116 7.33155 24.0069 7.33155C24.8973 7.33155 25.6736 7.00568 26.3355 6.35305C26.9641 5.7483 27.2784 4.98405 27.2784 4.06018C27.2784 3.15068 26.9592 2.37705 26.3214 1.7388C25.6834 1.1008 24.9119 0.781803 24.0071 0.781803ZM25.0786 3.06743V4.70305H24.6216V6.6458H23.3786V4.70318H22.9216V3.06743C22.9216 2.99593 22.9466 2.9353 22.9965 2.8853C23.0466 2.83543 23.1074 2.8103 23.1786 2.8103H24.8216C24.8883 2.8103 24.9479 2.8353 25.0001 2.8853C25.0522 2.9353 25.0786 2.99605 25.0786 3.06743ZM23.4427 2.03893C23.4427 1.66293 23.6284 1.47468 24 1.47468C24.3716 1.47468 24.5571 1.66268 24.5571 2.03893C24.5571 2.4103 24.3714 2.59605 24 2.59605C23.6286 2.59605 23.4427 2.4103 23.4427 2.03893Z" fill="white"/>
<path d="M4.25343 7.66505C6.24414 7.66505 7.85793 6.05126 7.85793 4.06055C7.85793 2.06984 6.24414 0.456055 4.25343 0.456055C2.26272 0.456055 0.648926 2.06984 0.648926 4.06055C0.648926 6.05126 2.26272 7.66505 4.25343 7.66505Z" fill="#1F1F1F"/>
<path d="M4.2104 0.0605469C5.32927 0.0605469 6.2819 0.451172 7.06752 1.23205C7.44352 1.60817 7.7294 2.03805 7.92465 2.5213C8.11977 3.00467 8.21765 3.51767 8.21765 4.06055C8.21765 4.60817 8.12102 5.1213 7.9284 5.59967C7.73552 6.07817 7.4509 6.50092 7.0749 6.86755C6.68452 7.25317 6.24165 7.54855 5.74627 7.7533C5.25115 7.95805 4.73915 8.06042 4.21065 8.06042C3.68215 8.06042 3.17615 7.95942 2.69277 7.7568C2.20952 7.55455 1.77615 7.26167 1.39277 6.87842C1.0094 6.49517 0.717774 6.06292 0.517773 5.58192C0.317773 5.10092 0.217773 4.59392 0.217773 4.06055C0.217773 3.53192 0.318898 3.02367 0.521273 2.53555C0.723648 2.04742 1.01777 1.61055 1.4034 1.2248C2.16527 0.448797 3.1009 0.0605469 4.2104 0.0605469ZM4.2249 0.782047C3.31065 0.782047 2.54152 1.10117 1.91765 1.73917C1.60327 2.0583 1.36165 2.41655 1.19265 2.81417C1.0234 3.2118 0.939024 3.6273 0.939024 4.06067C0.939024 4.4893 1.0234 4.90242 1.19265 5.2998C1.36177 5.69767 1.60327 6.05242 1.91765 6.3643C2.2319 6.6763 2.58652 6.91417 2.98202 7.07867C3.37715 7.24292 3.79152 7.32505 4.2249 7.32505C4.6534 7.32505 5.06865 7.24192 5.47152 7.07517C5.8739 6.9083 6.23665 6.66805 6.56065 6.3538C7.1844 5.7443 7.49615 4.98005 7.49615 4.0608C7.49615 3.61792 7.41515 3.19892 7.25327 2.80367C7.09165 2.40842 6.85577 2.05617 6.54652 1.74642C5.90327 1.10355 5.12965 0.782047 4.2249 0.782047ZM4.17477 3.39642L3.6389 3.67505C3.58165 3.55617 3.51152 3.47267 3.42827 3.42505C3.3449 3.37755 3.26752 3.35367 3.19602 3.35367C2.83902 3.35367 2.66027 3.5893 2.66027 4.0608C2.66027 4.27505 2.70552 4.4463 2.7959 4.57492C2.8864 4.70355 3.01977 4.76792 3.19602 4.76792C3.4294 4.76792 3.59365 4.65355 3.68902 4.42505L4.18177 4.67505C4.07702 4.87042 3.93177 5.02392 3.74602 5.1358C3.56052 5.2478 3.35565 5.30367 3.13177 5.30367C2.77465 5.30367 2.4864 5.1943 2.2674 4.97505C2.0484 4.75605 1.9389 4.4513 1.9389 4.06092C1.9389 3.67992 2.04965 3.37767 2.27102 3.1538C2.4924 2.93005 2.77215 2.81805 3.1104 2.81805C3.60577 2.8178 3.9604 3.01067 4.17477 3.39642ZM6.4819 3.39642L5.95327 3.67505C5.89615 3.55617 5.82577 3.47267 5.74252 3.42505C5.65902 3.37755 5.57915 3.35367 5.50327 3.35367C5.14615 3.35367 4.9674 3.5893 4.9674 4.0608C4.9674 4.27505 5.01277 4.4463 5.10315 4.57492C5.19352 4.70355 5.32677 4.76792 5.50327 4.76792C5.7364 4.76792 5.90077 4.65355 5.9959 4.42505L6.4959 4.67505C6.38652 4.87042 6.23877 5.02392 6.05327 5.1358C5.86752 5.2478 5.66515 5.30367 5.44615 5.30367C5.08415 5.30367 4.79502 5.1943 4.57852 4.97505C4.36152 4.75605 4.25327 4.4513 4.25327 4.06092C4.25327 3.67992 4.3639 3.37767 4.58552 3.1538C4.80677 2.93005 5.08652 2.81805 5.42465 2.81805C5.9199 2.8178 6.27252 3.01067 6.4819 3.39642Z" fill="white"/>
</svg>
